<?xml version="1.0" encoding="iso-8859-1"?>
<!-- Generator: Adobe Illustrator 17.1.0, SVG Export Plug-In . SVG Version: 6.00 Build 0)  -->
<!DOCTYPE svg PUBLIC "-//W3C//DTD SVG 1.1//EN" "http://www.w3.org/Graphics/SVG/1.1/DTD/svg11.dtd">
<svg version="1.1" id="Capa_1" xmlns="http://www.w3.org/2000/svg" xmlns:xlink="http://www.w3.org/1999/xlink" x="0px" y="0px"
	 viewBox="0 0 64 64" style="enable-background:new 0 0 64 64;" xml:space="preserve">
<g>
	<path d="M16.06,31.18l5.345-0.906c0.874-0.148,1.464-0.98,1.316-1.855l-0.543-3.199c-0.081-0.475-0.532-0.795-1.007-0.715
		l-6.794,1.152c-0.475,0.082-0.795,0.533-0.715,1.006l0.543,3.201C14.354,30.738,15.186,31.328,16.06,31.18z M22.449,28.465
		c0.027,0.162,0.024,0.321-0.005,0.472c-0.05,0.257-0.524,0.167-0.962-0.17l-1.267-0.976c-0.438-0.337-0.473-0.925-0.08-1.312
		l0.867-0.854c0.393-0.388,0.783-0.643,0.838-0.547c0.032,0.057,0.055,0.119,0.067,0.187L22.449,28.465z M21.218,24.777
		c0.041-0.007,0.082-0.01,0.123-0.009c0.068,0.002-0.199,0.331-0.592,0.718l-2.309,2.273c-0.099,0.098-0.312,0.135-0.437,0.074
		l-2.902-1.384c-0.498-0.238-0.858-0.463-0.795-0.488c0.038-0.015,0.077-0.026,0.119-0.032L21.218,24.777z M13.935,26.617
		c-0.011-0.068-0.01-0.135,0.001-0.199c0.02-0.109,0.471,0.005,0.969,0.244l1.154,0.551c0.498,0.238,0.657,0.806,0.355,1.268
		l-0.875,1.34c-0.302,0.462-0.741,0.703-0.886,0.465c-0.085-0.14-0.146-0.298-0.175-0.47L13.935,26.617z M15.776,29.963l0.89-1.364
		c0.302-0.462,0.697-0.765,0.882-0.676l0.335,0.161c0.114,0.055,0.254,0.072,0.395,0.047c0.139-0.023,0.266-0.084,0.354-0.174
		c0,0,0.132-0.13,0.295-0.291c0.163-0.161,0.65-0.018,1.088,0.319l1.3,1.001c0.438,0.337,0.663,0.761,0.452,0.875
		c-0.124,0.067-0.262,0.116-0.409,0.14l-5.346,0.908c-0.137,0.023-0.271,0.024-0.401,0.007
		C15.392,30.884,15.474,30.426,15.776,29.963z"/>
	<path d="M37.777,32.614c0.541,0.111,1.341,0.464,1.787,0.79l0.971,0.709c0.129,0.094,0.268,0.143,0.4,0.143
		c0.288,0,0.501-0.215,0.545-0.547l0.386-2.902l0.626-3.059c0.139-0.678,0.005-1.369-0.377-1.945
		c-0.381-0.578-0.965-0.973-1.644-1.111l-3.058-0.625c-0.172-0.035-0.347-0.053-0.522-0.053c-1.224,0-2.29,0.871-2.535,2.072
		l-0.625,3.059c-0.139,0.678-0.005,1.369,0.377,1.945c0.381,0.578,0.965,0.973,1.643,1.111L37.777,32.614z M34.848,26.185
		c0.198-0.969,1.058-1.672,2.045-1.672c0.141,0,0.282,0.016,0.422,0.043l3.058,0.625c0.547,0.111,1.018,0.43,1.326,0.896
		c0.308,0.465,0.416,1.024,0.304,1.57l-0.629,3.074l-0.389,2.922c-0.008,0.061-0.029,0.111-0.049,0.111
		c-0.019,0-0.058-0.012-0.105-0.047l-1.015-0.741c-0.446-0.326-1.246-0.682-1.786-0.797l-2.178-0.461
		c-0.547-0.111-1.018-0.43-1.325-0.896c-0.308-0.465-0.416-1.024-0.304-1.57L34.848,26.185z"/>
	<path d="M36.438,29.178c-0.079,0.136-0.211,0.234-0.242,0.27c-0.021,0.024-0.029,0.053-0.028,0.079
		c0.002,0.021,0.012,0.096,0.11,0.117c0.074,0.015,0.384,0.019,0.7-0.054c0.379-0.089,0.657-0.317,0.707-0.312
		c0.051,0.005,0.237,0.38,0.611,0.659c0.374,0.279,0.869,0.634,1.146,0.837c0.231,0.17,0.485,0.274,0.549,0.288
		c0.078,0.016,0.127-0.023,0.146-0.066c0.01-0.022,0.015-0.051,0.006-0.081c-0.013-0.044-0.085-0.167-0.101-0.297
		c-0.016-0.13,0.387-0.258,0.773-0.527c0.248-0.173,0.417-0.41,0.472-0.684c0.148-0.719-0.532-1.469-1.514-1.67
		c-0.009-0.001-0.018-0.002-0.027-0.004c-0.014-0.002-0.042-0.119-0.094-0.25c-0.03-0.077-0.068-0.154-0.115-0.228
		c-0.293-0.467-0.872-0.828-1.549-0.967c-1.111-0.227-2.15,0.248-2.316,1.061c-0.064,0.312,0.009,0.634,0.194,0.925
		C36.153,28.725,36.516,29.043,36.438,29.178z M39.743,28.066c0.006-0.056,0.481-0.033,0.901,0.325
		c0.32,0.272,0.489,0.627,0.419,0.97c-0.09,0.438-0.549,0.754-1.169,0.803c-0.06,0.006-0.106,0.057-0.104,0.117
		c0.002,0.085,0.005,0.164,0.011,0.235c0.01,0.13-0.142,0.154-0.314,0.005c-0.118-0.102-0.207-0.217-0.229-0.333
		c-0.008-0.043-0.04-0.078-0.083-0.09c-0.247-0.063-0.47-0.16-0.657-0.282c-0.332-0.216-0.014-0.496,0.475-0.752
		c0.386-0.202,0.656-0.518,0.734-0.899C39.734,28.133,39.74,28.1,39.743,28.066z M39.344,27.375c0.151,0.242,0.199,0.5,0.137,0.746
		c-0.169,0.662-0.994,1.053-1.92,0.91c-0.045-0.006-0.089,0.014-0.113,0.051c-0.079,0.12-0.236,0.202-0.409,0.256
		c-0.26,0.081-0.413-0.018-0.34-0.157c0.04-0.076,0.082-0.161,0.125-0.255c0.025-0.057,0.003-0.121-0.051-0.15
		c-0.636-0.332-0.978-0.875-0.875-1.381c0.141-0.689,1.059-1.086,2.047-0.885C38.561,26.637,39.084,26.961,39.344,27.375z"/>
	<circle cx="36.55" cy="27.512" r="0.159"/>
	<circle cx="37.604" cy="27.727" r="0.159"/>
	<circle cx="38.658" cy="27.942" r="0.159"/>
	<path d="M62.644,20.516L50.08,17.049c-0.532-0.147-0.82-0.698-0.802-1.25c0.012-0.382-0.034-0.771-0.146-1.157l-1.224-4.195
		c-0.468-1.604-1.96-2.725-3.628-2.725c-0.357,0-0.713,0.053-1.058,0.152l-4.197,1.223c-1.999,0.584-3.153,2.686-2.571,4.686
		l0.745,2.554c0.155,0.53-0.086,1.218-0.537,1.537l-10.809,7.628c-0.451,0.319-0.892,0.135-0.984-0.409l-0.308-1.819
		c-0.41-2.418-2.683-4.111-5.189-3.685l-5.259,0.893c-1.185,0.201-2.221,0.852-2.917,1.832c-0.695,0.98-0.968,2.174-0.768,3.359
		l0.893,5.258c0.18,1.061,0.723,1.972,1.485,2.631c0.418,0.361,0.457,0.825,0.005,1.143l-5.926,4.181
		c-0.577,0.41-0.898,0.994-0.882,1.604c0.004,0.134,0.027,0.266,0.065,0.394c0.063,0.212,0.314,0.788,0.509,1.305l0.476,1.265
		c0.52,1.381,2.105,3.164,3.609,4.065l14.745,8.803c0.675,0.404,1.491,0.617,2.36,0.617c1.184,0,2.328-0.402,3.137-1.104
		l30.681-26.598c1.361-1.18,2.413-3.24,2.394-4.691l-0.014-1.178c-0.007-0.552,0.026-1.142,0.033-1.32
		c0.004-0.107-0.003-0.214-0.028-0.32C63.837,21.152,63.353,20.711,62.644,20.516z M39.306,10.059l4.196-1.223
		c0.254-0.074,0.516-0.113,0.778-0.113c1.226,0,2.323,0.824,2.667,2.004l1.224,4.195c0.429,1.473-0.42,3.018-1.891,3.445
		l-4.196,1.225c-0.069,0.019-0.133,0.055-0.187,0.102l-1.621,1.39c-0.419,0.359-0.854,0.214-0.972-0.326l-0.666-3.054l-1.224-4.199
		C36.986,12.033,37.835,10.488,39.306,10.059z M25.979,30.706c-0.13-0.537,0.133-1.226,0.588-1.54l10.953-7.561
		c0.455-0.314,0.869-0.357,0.925-0.097l0.103,0.471c0.108,0.498,0.466,0.822,0.909,0.822c0.243,0,0.485-0.1,0.699-0.285l0.984-0.849
		c0.418-0.361,1.186-0.523,1.714-0.363l12.579,3.819c0.04,0.012,0.072,0.025,0.097,0.038c0.051,0.026,0.069,0.109,0.033,0.153
		c-0.018,0.022-0.041,0.046-0.073,0.073L31.151,46.555c-0.27,0.232-0.824,0.295-1.14,0.125l-15.818-8.594
		c-0.122-0.066-0.168-0.135-0.17-0.174c-0.002-0.039,0.036-0.111,0.149-0.189l4.386-3.028c0.455-0.314,1.264-0.643,1.809-0.736
		l0.309-0.053c0.544-0.093,1.418-0.052,1.952,0.09l2.655,0.709c0.126,0.033,0.251,0.051,0.37,0.051c0.331,0,0.616-0.131,0.804-0.369
		c0.203-0.258,0.265-0.611,0.172-0.996L25.979,30.706z M38.019,19.552c0.083,0.382-0.218,0.947-0.672,1.26l-10.969,7.573
		c-0.455,0.314-0.846,0.474-0.874,0.357l-0.051-0.211c0,0-0.031-0.182-0.069-0.407c-0.038-0.225,0.297-0.665,0.748-0.984
		l10.919-7.704C37.502,19.118,37.936,19.169,38.019,19.552z M11.414,25.504c-0.156-0.922,0.056-1.85,0.597-2.611
		c0.541-0.764,1.347-1.27,2.27-1.426l5.259-0.893c1.936-0.332,3.717,0.984,4.035,2.867l0.899,5.291l1.183,4.893
		c0.006,0.025,0.01,0.046,0.012,0.064c0.005,0.036-0.023,0.069-0.061,0.064c-0.018-0.003-0.04-0.007-0.066-0.015l-2.866-0.764
		c-0.534-0.142-1.408-0.183-1.952-0.09l-4.381,0.743c-1.942,0.336-3.717-0.984-4.035-2.865L11.414,25.504z M29.923,54.701
		c-0.527,0.455-1.337,0.727-2.166,0.727c-0.593,0-1.154-0.141-1.582-0.396L11.43,46.229c-0.888-0.53-1.857-1.486-2.467-2.38
		c-0.312-0.456-0.103-0.637,0.365-0.344l16.495,10.31c0.454,0.283,1.002,0.434,1.585,0.434c0.776,0,1.523-0.27,2.051-0.74
		l32.269-28.697c0.413-0.367,0.748-0.571,0.75-0.457l0.002,0.208c0.013,1.008-0.864,2.66-1.877,3.539L29.923,54.701z M62.458,22.096
		c-0.01,0.022-0.034,0.077-0.07,0.115c-0.02,0.021-0.042,0.042-0.069,0.066L28.462,52.387c-0.24,0.215-0.65,0.346-1.071,0.346
		c-0.302,0-0.577-0.066-0.773-0.189L7.769,40.764c-0.036-0.022-0.068-0.046-0.097-0.069c-0.051-0.042-0.097-0.113-0.111-0.15
		l-0.025-0.067c-0.036-0.129,0.057-0.254,0.215-0.367l6.905-4.873c0.451-0.318,1.049-0.559,1.336-0.571
		c0.171-0.007,0.343-0.023,0.517-0.052c0,0,0.251-0.042,0.561-0.095c0.31-0.052,0.193,0.16-0.262,0.473l-3.062,2.114
		c-0.317,0.219-0.489,0.527-0.473,0.846c0.018,0.32,0.222,0.609,0.561,0.793l15.819,8.594c0.234,0.127,0.515,0.193,0.812,0.193
		c0.447,0,0.876-0.148,1.178-0.41l24.339-21.168c0.296-0.256,0.429-0.58,0.363-0.885c-0.064-0.307-0.317-0.549-0.693-0.662
		l-12.031-3.653c-0.528-0.16-0.527-0.416,0.003-0.57l1.374-0.4c0.53-0.154,1.389-0.153,1.919,0.003l5.461,1.61
		c0.036,0.01,0.071,0.016,0.106,0.016c0.162,0,0.312-0.105,0.359-0.27c0.058-0.199-0.055-0.406-0.253-0.465l-4.459-1.315
		c-0.53-0.156-0.641-0.431-0.303-0.692c0.338-0.262,0.988-0.415,1.521-0.268l12.896,3.56c0.051,0.014,0.094,0.029,0.128,0.043
		C62.443,22.034,62.468,22.074,62.458,22.096z"/>
	<path d="M44.139,15.644l-0.918-3.149c-0.155-0.53-0.187-0.918-0.072-0.866l0.208,0.094c0.146,0.066,0.296,0.082,0.431,0.041
		c0.256-0.074,0.424-0.33,0.439-0.67c0.013-0.301-0.074-0.537-0.247-0.717c-0.17-0.18-0.402-0.279-0.658-0.279h-1.117
		c-0.086,0-0.17,0.014-0.247,0.035c-0.395,0.115-0.585,0.49-0.464,0.912l0.763,2.612c0.155,0.53,0.165,0.962,0.024,0.984
		c-0.085,0.014-0.169,0.032-0.253,0.056c-0.934,0.273-1.505,1.139-1.272,1.932c0.231,0.791,1.178,1.217,2.11,0.945
		C43.799,17.301,44.369,16.435,44.139,15.644z M42.097,14.936c0.196-0.059,0.398-0.082,0.597-0.07c0.043,0,0.08-0.017,0.104-0.049
		c0.024-0.029,0.032-0.07,0.021-0.109l-1.087-3.73c-0.084-0.287,0.035-0.531,0.295-0.608c0.055-0.016,0.114-0.023,0.178-0.023h1.118
		c0.186-0.002,0.357,0.07,0.48,0.201c0.124,0.131,0.188,0.305,0.179,0.488c-0.013,0.281-0.11,0.449-0.263,0.492
		c-0.08,0.024-0.168,0.012-0.262-0.029L42.8,11.201c-0.043-0.02-0.096-0.014-0.132,0.018c-0.037,0.031-0.051,0.08-0.037,0.127
		l1.272,4.367c0.191,0.662-0.304,1.391-1.106,1.625c-0.802,0.232-1.612-0.115-1.807-0.777C40.799,15.896,41.295,15.17,42.097,14.936
		z"/>
</g>
</svg>
